<svg width="24" height="24" viewBox="0 0 24 24" fill="none" xmlns="http://www.w3.org/2000/svg">
<g clip-path="url(#clip0_679_38450)">
<path d="M12 24C18.6274 24 24 18.6274 24 12C24 5.37258 18.6274 0 12 0C5.37258 0 0 5.37258 0 12C0 18.6274 5.37258 24 12 24Z" fill="#EE1C25"/>
<path d="M14 7.7256L13.2452 7.7133L12.9997 7L12.7548 7.7133L12 7.72611L12.6031 8.17909L12.3823 8.90008L13.0003 8.46708L13.6182 8.90008L13.3969 8.17909L14 7.7256Z" fill="#FFFF00"/>
<path d="M9.23645 4L9.24939 3.24539L10 3L9.24939 2.75461L9.23591 2L8.75923 2.60297L8 2.38268L8.45619 3.00051L8 3.61834L8.75923 3.39652L9.23645 4Z" fill="#FFFF00"/>
<path d="M12.2365 13.1051L12.2494 12.3109L13 12.0526L12.2494 11.7943L12.2359 11L11.7592 11.6347L11 11.4028L11.4562 12.0531L11 12.7034L11.7592 12.4699L12.2365 13.1051Z" fill="#FFFF00"/>
<path d="M12.4685 4.88295L12.8038 4.19621L12.1171 4.53153L11.5674 4L11.6748 4.75629L11 5.11498L11.7532 5.24734L11.8855 6.00052L12.2432 5.3252L13 5.43213L12.4685 4.88295Z" fill="#FFFF00"/>
<path d="M10.4176 8.0544L7.2408 8.0016L6.208 5L5.176 8.0024L2 8.056L4.5384 9.964L3.6088 13L6.2096 11.1768L8.8112 12.9984L7.88 9.9632L10.4176 8.0544Z" fill="#FFFF00"/>
</g>
<defs>
<clipPath id="clip0_679_38450">
<rect width="24" height="24" fill="white"/>
</clipPath>
</defs>
</svg>
