<svg width="18" height="18" viewBox="0 0 18 18" fill="none" xmlns="http://www.w3.org/2000/svg">
<path fill-rule="evenodd" clip-rule="evenodd" d="M17.3332 8.99984C17.3332 13.6022 13.6022 17.3332 8.99984 17.3332C4.39746 17.3332 0.666504 13.6022 0.666504 8.99984C0.666504 4.39746 4.39746 0.666504 8.99984 0.666504C13.6022 0.666504 17.3332 4.39746 17.3332 8.99984ZM6.47453 6.47455C6.71861 6.23047 7.11433 6.23047 7.35841 6.47455L8.99981 8.11595L10.6412 6.47456C10.8853 6.23049 11.281 6.23049 11.5251 6.47456C11.7692 6.71864 11.7692 7.11437 11.5251 7.35845L9.8837 8.99983L11.5251 10.6412C11.7691 10.8853 11.7691 11.281 11.5251 11.5251C11.281 11.7692 10.8853 11.7692 10.6412 11.5251L8.99981 9.88371L7.35843 11.5251C7.11435 11.7692 6.71862 11.7692 6.47455 11.5251C6.23047 11.281 6.23047 10.8853 6.47455 10.6412L8.11593 8.99983L6.47453 7.35843C6.23045 7.11435 6.23045 6.71862 6.47453 6.47455Z" fill="white" fill-opacity="0.1"/>
</svg>
