<svg width="24" height="24" viewBox="0 0 24 24" fill="none" xmlns="http://www.w3.org/2000/svg">
<g clip-path="url(#clip0_679_38407)">
<path d="M0.746582 16.1733C2.44192 20.7433 6.83992 23.9999 11.9999 23.9999C17.1599 23.9999 21.5579 20.7433 23.2533 16.1733L11.9999 15.1306L0.746582 16.1733Z" fill="#FFDA44"/>
<path d="M11.9999 0C6.83992 0 2.44192 3.25667 0.746582 7.82667L11.9999 8.86933L23.2533 7.826C21.5579 3.25667 17.1599 0 11.9999 0Z" fill="black"/>
<path d="M0.746673 7.82659C0.251517 9.16219 -0.00133462 10.5755 5.94696e-06 11.9999C-0.00141395 13.4246 0.251439 14.8381 0.746673 16.1739H23.2533C23.7486 14.8381 24.0014 13.4246 24 11.9999C24.0014 10.5753 23.7486 9.16179 23.2533 7.82593L0.746673 7.82659Z" fill="#D80027"/>
</g>
<defs>
<clipPath id="clip0_679_38407">
<rect width="24" height="24" fill="white"/>
</clipPath>
</defs>
</svg>
