<svg width="24" height="24" viewBox="0 0 24 24" fill="none" xmlns="http://www.w3.org/2000/svg">
<g clip-path="url(#clip0_679_38697)">
<mask id="mask0_679_38697" style="mask-type:luminance" maskUnits="userSpaceOnUse" x="0" y="0" width="24" height="24">
<path d="M23.2476 12.0008C23.2476 14.9849 22.0622 17.8467 19.9521 19.9568C17.8421 22.0668 14.9802 23.2523 11.9961 23.2523C9.01205 23.2523 6.15018 22.0668 4.04012 19.9568C1.93005 17.8467 0.744629 14.9849 0.744629 12.0008C0.744629 9.01668 1.93005 6.15482 4.04012 4.04476C6.15018 1.93469 9.01205 0.749268 11.9961 0.749268C14.9802 0.749268 17.8421 1.93469 19.9521 4.04476C22.0622 6.15482 23.2476 9.01668 23.2476 12.0008Z" fill="white"/>
</mask>
<g mask="url(#mask0_679_38697)">
<path d="M0.75 23.25L0.75 15.75L23.25 15.75V23.25H0.75Z" fill="#27AE60"/>
<path d="M0.75 15.75L0.75 8.25L23.25 8.25V15.75L0.75 15.75Z" fill="white"/>
<path d="M0.75 8.25L0.75 0.750001L23.25 0.750001V8.25L0.75 8.25Z" fill="#F39C12"/>
<path d="M11.9964 15.2831C13.8079 15.2831 15.2765 13.8145 15.2765 12.003C15.2765 10.1914 13.8079 8.7229 11.9964 8.7229C10.1848 8.7229 8.71631 10.1914 8.71631 12.003C8.71631 13.8145 10.1848 15.2831 11.9964 15.2831Z" fill="#000088"/>
<path d="M11.996 14.8729C13.5811 14.8729 14.8661 13.588 14.8661 12.0029C14.8661 10.4178 13.5811 9.13281 11.996 9.13281C10.411 9.13281 9.12598 10.4178 9.12598 12.0029C9.12598 13.588 10.411 14.8729 11.996 14.8729Z" fill="white"/>
<path d="M11.9964 12.577C12.3134 12.577 12.5704 12.32 12.5704 12.003C12.5704 11.6859 12.3134 11.429 11.9964 11.429C11.6794 11.429 11.4224 11.6859 11.4224 12.003C11.4224 12.32 11.6794 12.577 11.9964 12.577Z" fill="#000088"/>
<path d="M14.8224 12.5199C14.901 12.5303 14.9731 12.475 14.9835 12.3964C14.9939 12.3179 14.9386 12.2457 14.86 12.2354C14.7815 12.225 14.7094 12.2802 14.699 12.3588C14.6886 12.4374 14.7439 12.5095 14.8224 12.5199Z" fill="#000088"/>
<path d="M11.9959 14.8731L12.0943 13.1511L11.9959 12.3311L11.8975 13.1511L11.9959 14.8731Z" fill="#000088"/>
<path d="M14.5928 13.2344C14.666 13.2648 14.75 13.2301 14.7804 13.1569C14.8108 13.0837 14.7761 12.9997 14.7029 12.9693C14.6297 12.9389 14.5457 12.9736 14.5153 13.0468C14.4849 13.12 14.5196 13.204 14.5928 13.2344Z" fill="#000088"/>
<path d="M11.2526 14.7756L11.7936 13.1375L11.911 12.3199L11.6035 13.0866L11.2526 14.7756Z" fill="#000088"/>
<path d="M14.1855 13.8641C14.2484 13.9124 14.3385 13.9006 14.3868 13.8377C14.435 13.7749 14.4232 13.6848 14.3604 13.6365C14.2975 13.5882 14.2074 13.6 14.1592 13.6629C14.1109 13.7257 14.1227 13.8158 14.1855 13.8641Z" fill="#000088"/>
<path d="M10.5613 14.4887L11.5075 13.0466L11.8323 12.2872L11.3371 12.9482L10.5613 14.4887Z" fill="#000088"/>
<path d="M13.629 14.3678C13.6772 14.4307 13.7673 14.4426 13.8302 14.3944C13.8931 14.3462 13.905 14.2562 13.8568 14.1933C13.8086 14.1303 13.7185 14.1184 13.6556 14.1666C13.5927 14.2148 13.5808 14.3049 13.629 14.3678Z" fill="#000088"/>
<path d="M9.96593 14.0323L11.2535 12.8843L11.7639 12.2349L11.1143 12.7451L9.96593 14.0323Z" fill="#000088"/>
<path d="M12.962 14.7096C12.9923 14.7828 13.0762 14.8176 13.1495 14.7873C13.2227 14.7571 13.2575 14.6731 13.2272 14.5999C13.1969 14.5267 13.113 14.4918 13.0398 14.5221C12.9665 14.5524 12.9317 14.6363 12.962 14.7096Z" fill="#000088"/>
<path d="M9.51086 13.438L11.0514 12.6622L11.7123 12.167L10.9529 12.4918L9.51086 13.438Z" fill="#000088"/>
<path d="M12.2282 14.8675C12.2385 14.9461 12.3105 15.0015 12.3891 14.9912C12.4677 14.9809 12.5231 14.9089 12.5128 14.8303C12.5025 14.7517 12.4304 14.6963 12.3519 14.7066C12.2733 14.7169 12.2179 14.789 12.2282 14.8675Z" fill="#000088"/>
<path d="M9.22398 12.7456L10.913 12.3952L11.6798 12.088L10.8621 12.2051L9.22398 12.7456Z" fill="#000088"/>
<path d="M11.4794 14.8295C11.469 14.9081 11.5243 14.9802 11.6028 14.9906C11.6814 15.001 11.7535 14.9457 11.7639 14.8671C11.7743 14.7885 11.719 14.7164 11.6405 14.706C11.5619 14.6957 11.4898 14.7509 11.4794 14.8295Z" fill="#000088"/>
<path d="M9.12651 12.0029L10.8485 12.1013L11.6685 12.0029L10.8485 11.9045L9.12651 12.0029Z" fill="#000088"/>
<path d="M10.7649 14.5994C10.7345 14.6726 10.7692 14.7566 10.8424 14.787C10.9156 14.8174 10.9996 14.7826 11.03 14.7094C11.0603 14.6362 11.0256 14.5523 10.9524 14.5219C10.8792 14.4915 10.7953 14.5262 10.7649 14.5994Z" fill="#000088"/>
<path d="M9.22407 11.2597L10.862 11.8007L11.6796 11.9181L10.913 11.6106L9.22407 11.2597Z" fill="#000088"/>
<path d="M10.1351 14.1926C10.0869 14.2555 10.0987 14.3456 10.1615 14.3939C10.2244 14.4422 10.3145 14.4303 10.3628 14.3675C10.4111 14.3046 10.3992 14.2145 10.3364 14.1662C10.2735 14.118 10.1834 14.1298 10.1351 14.1926Z" fill="#000088"/>
<path d="M9.51027 10.5679L10.9526 11.5141L11.712 11.8389L11.051 11.3437L9.51027 10.5679Z" fill="#000088"/>
<path d="M9.63093 13.6363C9.56801 13.6845 9.5561 13.7746 9.60431 13.8375C9.65252 13.9004 9.74261 13.9124 9.80552 13.8642C9.86843 13.8159 9.88035 13.7259 9.83214 13.6629C9.78393 13.6 9.69384 13.5881 9.63093 13.6363Z" fill="#000088"/>
<path d="M9.96619 9.97293L11.1144 11.2606L11.7639 11.771L11.2536 11.1214L9.96619 9.97293Z" fill="#000088"/>
<path d="M9.28941 12.9688C9.21617 12.9991 9.18135 13.0831 9.21165 13.1563C9.24195 13.2295 9.32588 13.2644 9.39912 13.2341C9.47236 13.2038 9.50718 13.1198 9.47688 13.0466C9.44659 12.9733 9.36265 12.9385 9.28941 12.9688Z" fill="#000088"/>
<path d="M10.561 9.51729L11.337 11.0579L11.8323 11.7189L11.5074 10.9595L10.561 9.51729Z" fill="#000088"/>
<path d="M9.13146 12.2348C9.05287 12.2451 8.9975 12.3171 9.0078 12.3957C9.01809 12.4743 9.09015 12.5297 9.16874 12.5194C9.24733 12.5091 9.30269 12.437 9.29239 12.3584C9.2821 12.2798 9.21004 12.2245 9.13146 12.2348Z" fill="#000088"/>
<path d="M11.2535 9.22988L11.604 10.9191L11.9113 11.6859L11.7942 10.8681L11.2535 9.22988Z" fill="#000088"/>
<path d="M9.16876 11.4864C9.09018 11.4761 9.01806 11.5313 9.00768 11.6099C8.9973 11.6885 9.05258 11.7606 9.13116 11.771C9.20974 11.7814 9.28185 11.7261 9.29224 11.6475C9.30262 11.5689 9.24733 11.4968 9.16876 11.4864Z" fill="#000088"/>
<path d="M11.9957 9.13281L11.8974 10.855L11.9958 11.6751L12.0942 10.855L11.9957 9.13281Z" fill="#000088"/>
<path d="M9.39932 10.7717C9.32612 10.7413 9.24214 10.776 9.21177 10.8492C9.18139 10.9224 9.21611 11.0064 9.28932 11.0368C9.36253 11.0672 9.4465 11.0324 9.47688 10.9592C9.50725 10.886 9.47253 10.8021 9.39932 10.7717Z" fill="#000088"/>
<path d="M12.7395 9.23034L12.1985 10.8685L12.0812 11.6862L12.3886 10.9195L12.7395 9.23034Z" fill="#000088"/>
<path d="M9.80663 10.142C9.74377 10.0937 9.65368 10.1055 9.6054 10.1684C9.55712 10.2312 9.56894 10.3213 9.63179 10.3696C9.69465 10.4179 9.78474 10.4061 9.83302 10.3432C9.8813 10.2804 9.86948 10.1903 9.80663 10.142Z" fill="#000088"/>
<path d="M13.4314 9.5172L12.4851 10.9595L12.1604 11.7189L12.6556 11.0579L13.4314 9.5172Z" fill="#000088"/>
<path d="M10.3632 9.63826C10.315 9.57535 10.2249 9.56344 10.162 9.61165C10.0991 9.65986 10.0872 9.74994 10.1354 9.81285C10.1836 9.87576 10.2737 9.88768 10.3366 9.83947C10.3995 9.79126 10.4114 9.70117 10.3632 9.63826Z" fill="#000088"/>
<path d="M14.0267 9.97359L12.7392 11.1217L12.2288 11.7712L12.8783 11.2609L14.0267 9.97359Z" fill="#000088"/>
<path d="M11.0302 9.29626C10.9999 9.22301 10.916 9.18819 10.8428 9.21848C10.7695 9.24877 10.7347 9.3327 10.765 9.40595C10.7953 9.4792 10.8792 9.51402 10.9524 9.48373C11.0257 9.45344 11.0605 9.36951 11.0302 9.29626Z" fill="#000088"/>
<path d="M14.4817 10.5681L12.9409 11.3438L12.2799 11.8391L13.0393 11.5143L14.4817 10.5681Z" fill="#000088"/>
<path d="M11.764 9.13807C11.7537 9.05948 11.6817 9.00411 11.6031 9.01439C11.5245 9.02468 11.4691 9.09673 11.4794 9.17532C11.4897 9.25392 11.5618 9.30929 11.6403 9.299C11.7189 9.28871 11.7743 9.21666 11.764 9.13807Z" fill="#000088"/>
<path d="M14.7685 11.2606L13.0793 11.6109L12.3124 11.9181L13.1302 11.8011L14.7685 11.2606Z" fill="#000088"/>
<path d="M12.5128 9.17636C12.5232 9.09779 12.468 9.02567 12.3894 9.01527C12.3108 9.00488 12.2387 9.06015 12.2283 9.13873C12.2179 9.21731 12.2732 9.28943 12.3517 9.29982C12.4303 9.31022 12.5024 9.25494 12.5128 9.17636Z" fill="#000088"/>
<path d="M14.866 12.0033L13.1438 11.9048L12.3237 12.0032L13.1438 12.1016L14.866 12.0033Z" fill="#000088"/>
<path d="M13.2278 9.40645C13.2582 9.33324 13.2235 9.24927 13.1503 9.21888C13.0771 9.18849 12.9931 9.2232 12.9627 9.29641C12.9323 9.36961 12.9671 9.45359 13.0403 9.48397C13.1135 9.51436 13.1974 9.47965 13.2278 9.40645Z" fill="#000088"/>
<path d="M14.7684 12.7466L13.1303 12.2054L12.3126 12.088L13.0793 12.3956L14.7684 12.7466Z" fill="#000088"/>
<path d="M13.8575 9.81325C13.9058 9.7504 13.894 9.6603 13.8311 9.61201C13.7683 9.56373 13.6782 9.57554 13.6299 9.63839C13.5816 9.70124 13.5934 9.79134 13.6563 9.83963C13.7191 9.88791 13.8092 9.8761 13.8575 9.81325Z" fill="#000088"/>
<path d="M14.4818 13.4379L13.0396 12.4916L12.2802 12.1667L12.9411 12.662L14.4818 13.4379Z" fill="#000088"/>
<path d="M14.3612 10.3696C14.4242 10.3214 14.4361 10.2313 14.3879 10.1684C14.3397 10.1054 14.2496 10.0935 14.1867 10.1417C14.1238 10.1899 14.1118 10.28 14.16 10.3429C14.2082 10.4058 14.2983 10.4178 14.3612 10.3696Z" fill="#000088"/>
<path d="M14.0258 14.0328L12.8777 12.7451L12.2283 12.2346L12.7385 12.8843L14.0258 14.0328Z" fill="#000088"/>
<path d="M14.7028 11.0373C14.776 11.007 14.8108 10.9231 14.7805 10.8498C14.7502 10.7766 14.6663 10.7418 14.5931 10.7721C14.5198 10.8024 14.485 10.8863 14.5153 10.9595C14.5456 11.0328 14.6295 11.0676 14.7028 11.0373Z" fill="#000088"/>
<path d="M13.4309 14.4886L12.6552 12.948L12.1599 12.287L12.4847 13.0464L13.4309 14.4886Z" fill="#000088"/>
<path d="M14.8607 11.7711C14.9393 11.7608 14.9947 11.6888 14.9844 11.6102C14.9741 11.5316 14.902 11.4762 14.8234 11.4865C14.7449 11.4968 14.6895 11.5688 14.6998 11.6474C14.7101 11.726 14.7821 11.7814 14.8607 11.7711Z" fill="#000088"/>
<path d="M12.7384 14.7758L12.3881 13.0866L12.0809 12.3198L12.1979 13.1375L12.7384 14.7758Z" fill="#000088"/>
</g>
</g>
<defs>
<clipPath id="clip0_679_38697">
<rect width="24" height="24" fill="white"/>
</clipPath>
</defs>
</svg>
