<svg width="24" height="24" viewBox="0 0 24 24" fill="none" xmlns="http://www.w3.org/2000/svg">
<g clip-path="url(#clip0_679_38484)">
<path d="M12 24C18.6272 24 24 18.6267 24 12C24 5.37328 18.6272 0 12 0C5.37281 0 0 5.37328 0 12C0 18.6267 5.37281 24 12 24Z" fill="#F0F0F0"/>
<path d="M11.9999 17.2205C13.0324 17.2211 14.0419 16.9154 14.9007 16.3422C15.7595 15.769 16.429 14.9539 16.8245 14.0002C17.22 13.0464 17.3238 11.9968 17.1228 10.984C16.9217 9.97129 16.4248 9.04091 15.695 8.31058C14.9651 7.58025 14.035 7.08278 13.0224 6.88108C12.0098 6.67939 10.9601 6.78253 10.0061 7.17747C9.05208 7.5724 8.23663 8.24139 7.66287 9.09981C7.08911 9.95823 6.78281 10.9675 6.78271 12.0001C6.78271 13.384 7.33228 14.7114 8.31059 15.6903C9.28891 16.6693 10.6159 17.2196 11.9999 17.2205Z" fill="#D80027"/>
</g>
<defs>
<clipPath id="clip0_679_38484">
<rect width="24" height="24" fill="white"/>
</clipPath>
</defs>
</svg>
