<svg width="24" height="24" viewBox="0 0 24 24" fill="none" xmlns="http://www.w3.org/2000/svg">
<g clip-path="url(#clip0_679_38570)">
<path d="M23.2562 11.9972C23.2562 13.4742 22.9653 14.9367 22.4001 16.3013C21.8349 17.6658 21.0064 18.9057 19.962 19.9501C18.9177 20.9945 17.6778 21.8229 16.3132 22.3881C14.9487 22.9533 13.4862 23.2442 12.0092 23.2442C10.5322 23.2442 9.06972 22.9533 7.70517 22.3881C6.34062 21.8229 5.10076 20.9945 4.05638 19.9501C3.012 18.9057 2.18355 17.6658 1.61834 16.3013C1.05312 14.9367 0.762207 13.4742 0.762207 11.9972C0.762207 10.5203 1.05312 9.05775 1.61834 7.6932C2.18355 6.32865 3.012 5.08879 4.05638 4.04441C5.10076 3.00003 6.34062 2.17159 7.70517 1.60637C9.06972 1.04116 10.5322 0.750244 12.0092 0.750244C13.4862 0.750244 14.9487 1.04116 16.3132 1.60637C17.6778 2.17159 18.9177 3.00003 19.962 4.04441C21.0064 5.08879 21.8349 6.32865 22.4001 7.6932C22.9653 9.05775 23.2562 10.5203 23.2562 11.9972Z" fill="white"/>
<path d="M3.479 9.37842L5.7842 5.92271L3.479 9.37842ZM4.43568 10.0166L6.74088 6.56088L4.43568 10.0166ZM5.39237 10.6548L7.69756 7.19905L5.39237 10.6548Z" fill="black"/>
<path d="M3.479 9.37842L5.7842 5.92271M4.43568 10.0166L6.74088 6.56088M5.39237 10.6548L7.69756 7.19905" stroke="#222222" stroke-width="0.5"/>
<path d="M16.1499 17.8308L18.4551 14.3751L16.1499 17.8308ZM17.1066 18.469L19.4118 15.0133L17.1066 18.469ZM18.0633 19.1072L20.3685 15.6514L18.0633 19.1072Z" fill="black"/>
<path d="M16.1499 17.8308L18.4551 14.3751M17.1066 18.469L19.4118 15.0133M18.0633 19.1072L20.3685 15.6514" stroke="#222222" stroke-width="0.5"/>
<path d="M15.2864 14.7582C16.5596 12.8497 16.0445 10.2704 14.1359 8.99728C12.2274 7.72416 9.64814 8.23927 8.37502 10.1478C7.10189 12.0563 7.617 14.6356 9.52554 15.9087C11.4341 17.1818 14.0133 16.6667 15.2864 14.7582Z" fill="#E74C3C"/>
<path d="M8.37502 10.1478C8.06933 10.6061 7.9582 11.167 8.06609 11.7072C8.17397 12.2474 8.49202 12.7226 8.95028 13.0283C9.40853 13.3339 9.96945 13.4451 10.5096 13.3372C11.0498 13.2293 11.525 12.9113 11.8307 12.453C12.1364 11.9947 12.6116 11.6767 13.1518 11.5688C13.692 11.4609 14.2529 11.572 14.7112 11.8777C15.1694 12.1834 15.4875 12.6586 15.5954 13.1988C15.7033 13.739 15.5921 14.2999 15.2864 14.7582C14.6751 15.6747 13.7246 16.3108 12.6443 16.5266C11.5639 16.7423 10.442 16.5201 9.52554 15.9087C8.60902 15.2973 7.97292 14.3469 7.75715 13.2665C7.54139 12.1862 7.76364 11.0643 8.37502 10.1478Z" fill="#356BA0"/>
<path d="M5.78418 18.9834L3.47899 15.5277L5.78418 18.9834ZM6.74086 18.3452L4.43567 14.8895L6.74086 18.3452ZM7.69754 17.7071L5.39235 14.2513L7.69754 17.7071Z" fill="black"/>
<path d="M5.78418 18.9834L3.47899 15.5277M6.74086 18.3452L4.43567 14.8895M7.69754 17.7071L5.39235 14.2513" stroke="#222222" stroke-width="0.5"/>
<path d="M18.4551 10.531L16.1499 7.07529L18.4551 10.531ZM19.4118 9.89284L17.1066 6.43712L19.4118 9.89284ZM20.3684 9.25466L18.0632 5.79895L20.3684 9.25466Z" fill="black"/>
<path d="M18.4551 10.531L16.1499 7.07529M19.4118 9.89284L17.1066 6.43712M20.3684 9.25466L18.0632 5.79895" stroke="#222222" stroke-width="0.5"/>
<path d="M20 7L18.5 8" stroke="white" stroke-width="0.5"/>
<path d="M16 10L18 8.5" stroke="white" stroke-width="0.5"/>
<path d="M16.5 15.5L20 18" stroke="white" stroke-width="0.5"/>
<path d="M4.99998 16.9882L6.14108 16.1529" stroke="white" stroke-width="0.5"/>
</g>
<defs>
<clipPath id="clip0_679_38570">
<rect width="24" height="24" fill="white"/>
</clipPath>
</defs>
</svg>
