<svg width="88" height="21" viewBox="0 0 88 21" fill="none" xmlns="http://www.w3.org/2000/svg">
<g clip-path="url(#clip0_1094_6758)">
<path d="M20.1871 15.1422H18.6766L21.4319 8.16481C21.722 7.43263 22.2563 7.15332 23.0834 7.15332C23.9105 7.15332 24.4312 7.43263 24.7105 8.16481L27.3627 15.1422H25.8386L23.4549 8.82919C23.3844 8.64208 23.2569 8.56073 23.0725 8.56073C22.8881 8.56073 22.758 8.64208 22.6766 8.82919L20.1871 15.1422Z" fill="url(#paint0_linear_1094_6758)"/>
<path d="M32.3824 9.00293C34.0095 9.00293 35.0346 10.0036 35.0346 12.0727C35.0346 14.1417 34.0122 15.1424 32.3824 15.1424H29.6624V17.6074H28.4312V11.6306C28.4312 9.86256 29.2095 9.00293 30.6875 9.00293H32.3851H32.3824ZM29.6624 13.9438H32.2549C33.3261 13.9438 33.7898 13.396 33.7898 12.0727C33.7898 10.7493 33.3261 10.188 32.2549 10.188H31.0454C30.0447 10.188 29.6624 10.63 29.6624 11.6876V13.9438Z" fill="url(#paint1_linear_1094_6758)"/>
<path d="M40.4393 9.00293C42.0664 9.00293 43.0915 10.0036 43.0915 12.0727C43.0915 14.1417 42.0691 15.1424 40.4393 15.1424H37.7193V17.6074H36.4881V11.6306C36.4881 9.86256 37.2664 9.00293 38.7444 9.00293H40.442H40.4393ZM37.7193 13.9438H40.3119C41.3803 13.9438 41.8468 13.396 41.8468 12.0727C41.8468 10.7493 41.3803 10.188 40.3119 10.188H39.1024C38.1017 10.188 37.7193 10.63 37.7193 11.6876V13.9438Z" fill="url(#paint2_linear_1094_6758)"/>
<path d="M45.798 6.33984V15.1422H44.5668V6.33984H45.798Z" fill="url(#paint3_linear_1094_6758)"/>
<path d="M51.5661 9.00293C53.0197 9.00293 53.6353 9.69985 53.6353 10.8876C53.6353 12.0754 53.0658 12.6557 51.5553 12.6557H48.6373V13.0977C48.6373 13.5858 48.9058 13.9465 49.5783 13.9465H53.3342V15.1451H49.5783C48.0434 15.1451 47.4386 14.2855 47.4386 13.1221V11.0286C47.4386 9.86527 48.0434 9.00564 49.5783 9.00564H51.5661V9.00293ZM48.6346 11.6876H51.5173C52.179 11.6876 52.423 11.4083 52.423 10.9554C52.423 10.5025 52.1546 10.188 51.5498 10.188H49.5729C48.8976 10.188 48.6319 10.5595 48.6319 11.0368V11.6876H48.6346Z" fill="url(#paint4_linear_1094_6758)"/>
<path d="M2.84474 14.6816C2.84474 14.6816 2.59254 15.2131 2.35661 16.0511C2.35118 16.0728 2.34305 16.0972 2.33762 16.1216C2.31864 16.1894 2.30237 16.2572 2.28339 16.3277C2.2183 16.588 2.14779 16.8266 2.06644 17.0355C1.84135 17.6131 1.53491 17.9547 1.06305 17.9086C0.528809 17.8707 -0.0406825 17.068 0.00270731 15.6497C0.00270731 15.6253 0.00270731 15.6009 0.00541918 15.5765C0.0135548 15.3921 0.0325378 15.1996 0.0623683 14.9989C0.173555 14.2586 0.436606 13.521 0.718639 12.9298C0.778301 12.8024 0.840673 12.6804 0.903046 12.5692C0.970843 12.4417 1.03864 12.3278 1.10101 12.2221C1.36135 11.7963 1.56745 11.5523 1.56203 11.5495C1.56203 11.5224 2.15864 11.8234 2.57898 12.3088C2.61694 12.3522 2.6522 12.3983 2.68745 12.4444C3.05084 12.9353 3.23254 13.6051 2.84474 14.6871V14.6816Z" fill="url(#paint5_linear_1094_6758)"/>
<g style="mix-blend-mode:multiply" opacity="0.17">
<path d="M2.84475 14.6813C2.84475 14.6813 2.59254 15.2128 2.35661 16.0507C2.35119 16.0724 2.34305 16.0968 2.33763 16.1212C2.31864 16.189 2.30237 16.2568 2.28339 16.3273C2.2183 16.5876 2.1478 16.8263 2.06644 17.0351C2.05288 16.8913 2.25898 14.2664 2.25898 14.2664C1.39932 13.9762 0.949152 13.3823 0.718643 12.9295C0.778304 12.802 0.840677 12.68 0.90305 12.5688C0.970847 12.4413 1.03864 12.3274 1.10102 12.2217C1.56203 12.2407 2.1939 12.3464 2.68746 12.4413C3.05085 12.9322 3.23254 13.602 2.84475 14.684V14.6813Z" fill="#808080"/>
</g>
<path d="M11.981 14.6814C11.981 14.6814 12.2902 15.3295 12.5424 16.3275C12.7864 17.3173 13.12 17.9708 13.7627 17.9084C14.3729 17.865 15.0319 16.8183 14.7634 14.9987C14.6305 14.0984 14.2671 13.2008 13.9227 12.5662C13.581 11.9263 13.2556 11.552 13.2637 11.5466C13.2637 11.5195 12.6671 11.8205 12.2468 12.3059C11.8156 12.8103 11.558 13.4991 11.981 14.6814Z" fill="url(#paint6_linear_1094_6758)"/>
<g style="mix-blend-mode:multiply" opacity="0.17">
<path d="M11.981 14.6813C11.981 14.6813 12.2332 15.2128 12.4691 16.0507C12.4746 16.0724 12.4827 16.0968 12.4881 16.1212C12.5071 16.189 12.5234 16.2568 12.5424 16.3273C12.6075 16.5876 12.678 16.8263 12.7593 17.0351C12.7729 16.8913 12.5668 14.2664 12.5668 14.2664C13.4264 13.9762 13.8766 13.3823 14.1071 12.9295C14.0475 12.802 13.9851 12.68 13.9227 12.5688C13.8549 12.4413 13.7871 12.3274 13.7247 12.2217C13.2637 12.2407 12.6319 12.3464 12.1383 12.4413C11.7749 12.9322 11.5932 13.602 11.981 14.684V14.6813Z" fill="#808080"/>
</g>
<path d="M4.39322 11.9101C4.39322 12.7019 3.87796 13.3717 3.16746 13.6077C2.99119 13.6646 2.80407 13.6972 2.60881 13.6972C1.62169 13.6972 0.821693 12.8972 0.821693 11.9101C0.821693 10.923 1.62169 10.123 2.60881 10.123C2.66847 10.123 2.73085 10.1258 2.7878 10.1312C3.69085 10.2207 4.39322 10.9827 4.39322 11.9074V11.9101Z" fill="url(#paint7_linear_1094_6758)"/>
<g style="mix-blend-mode:screen" opacity="0.1">
<path d="M3.16474 13.6077C2.98847 13.6646 2.80135 13.6972 2.6061 13.6972C1.61898 13.6972 0.818977 12.8972 0.818977 11.9101C0.818977 10.923 1.61898 10.123 2.6061 10.123C2.66576 10.123 2.72813 10.1258 2.78508 10.1312C1.88203 10.8498 1.57288 12.306 3.15389 13.1277C3.1783 13.3094 3.18101 13.4667 3.16474 13.605V13.6077Z" fill="#B3B3B3"/>
</g>
<path d="M10.4352 11.9101C10.4352 12.8972 11.2352 13.6972 12.2224 13.6972C13.2095 13.6972 14.0095 12.8972 14.0095 11.9101C14.0095 10.923 13.2095 10.123 12.2224 10.123C11.2352 10.123 10.4352 10.923 10.4352 11.9101Z" fill="url(#paint8_linear_1094_6758)"/>
<g style="mix-blend-mode:screen" opacity="0.1">
<path d="M11.661 13.6077C11.8373 13.6646 12.0244 13.6972 12.2197 13.6972C13.2068 13.6972 14.0068 12.8972 14.0068 11.9101C14.0068 10.923 13.2068 10.123 12.2197 10.123C12.16 10.123 12.0976 10.1258 12.0407 10.1312C12.9437 10.8498 13.2529 12.306 11.6719 13.1277C11.6475 13.3094 11.6447 13.4667 11.661 13.605V13.6077Z" fill="#B3B3B3"/>
</g>
<path d="M8.87593 15.4138C8.87593 16.2219 8.22237 16.8754 7.41423 16.8754C6.6061 16.8754 5.95254 16.2219 5.95254 15.4138C5.95254 14.6057 6.6061 13.9521 7.41423 13.9521C8.22237 13.9521 8.87593 14.6057 8.87593 15.4138Z" fill="#FF0000"/>
<path d="M11.8671 13.6888C11.8671 13.9274 11.8481 14.1824 11.8129 14.4562C11.8102 14.4806 11.8075 14.5051 11.802 14.5295C11.7559 14.8522 11.68 15.202 11.5715 15.5789C10.6549 18.7408 9.19864 20.3815 7.41423 20.3815C5.62983 20.3815 4.17355 18.7408 3.25694 15.5789C3.14847 15.202 3.07254 14.8522 3.02644 14.5295C3.02372 14.5051 3.0183 14.4806 3.01559 14.4562C2.97762 14.1824 2.96135 13.9247 2.95864 13.6888C2.95322 12.737 3.20542 12.0699 3.46305 11.6387C3.7261 11.1994 3.99186 11.0069 3.99186 11.0069C3.99186 11.0069 5.38305 10.4482 7.41152 10.4482C9.44 10.4482 10.8312 11.0069 10.8312 11.0069C10.8312 11.0069 11.0753 11.1831 11.3275 11.5845C11.5959 12.0129 11.8698 12.6936 11.8644 13.6888H11.8671Z" fill="url(#paint9_linear_1094_6758)"/>
<g style="mix-blend-mode:multiply" opacity="0.1">
<path d="M11.3275 11.5815C10.362 12.452 10.4325 12.5117 7.36813 12.5117C4.30372 12.5117 4.54779 12.452 3.46305 11.6358C3.7261 11.1965 3.99186 11.0039 3.99186 11.0039C3.99186 11.0039 5.38305 10.4453 7.41152 10.4453C9.44 10.4453 10.8312 11.0039 10.8312 11.0039C10.8312 11.0039 11.0753 11.1802 11.3275 11.5815Z" fill="#2E2E2E"/>
</g>
<path d="M8.99525 15.1103C8.99525 15.9834 8.28745 16.6912 7.41423 16.6912C6.54101 16.6912 5.83321 15.9834 5.83321 15.1103C5.83321 14.9828 5.84948 14.8581 5.8766 14.7387C6.04203 14.0445 6.66847 13.5293 7.41423 13.5293C8.15999 13.5293 8.78372 14.0445 8.95186 14.7387C8.98169 14.8581 8.99525 14.9801 8.99525 15.1103Z" fill="url(#paint10_linear_1094_6758)"/>
<g style="mix-blend-mode:screen" opacity="0.2">
<path d="M8.95186 14.7417C8.78644 15.4359 8.16 15.9511 7.41423 15.9511C6.66847 15.9511 6.04474 15.4359 5.87661 14.7417C6.04203 14.0475 6.66847 13.5322 7.41423 13.5322C8.16 13.5322 8.78372 14.0475 8.95186 14.7417Z" fill="#B3B3B3"/>
</g>
<g style="mix-blend-mode:screen" opacity="0.27">
<path d="M7.88881 14.546C8.07864 14.7358 8.31457 14.8036 8.41762 14.7006C8.52067 14.5975 8.45288 14.3589 8.26305 14.1718C8.07321 13.9847 7.83728 13.9142 7.73423 14.0172C7.63118 14.1203 7.69898 14.3589 7.88881 14.546Z" fill="#E6E6E6"/>
</g>
<g style="mix-blend-mode:screen" opacity="0.1">
<path d="M1.90372 11.2839C1.73288 11.4873 1.50237 11.5768 1.38847 11.4846C1.27728 11.3897 1.3261 11.1483 1.49694 10.945C1.66779 10.7416 1.8983 10.6521 2.0122 10.7443C2.12338 10.8392 2.07457 11.0806 1.90372 11.2839Z" fill="#E6E6E6"/>
</g>
<g style="mix-blend-mode:screen" opacity="0.1">
<path d="M12.9247 11.2839C13.0956 11.4873 13.3261 11.5768 13.44 11.4846C13.5512 11.3897 13.5024 11.1483 13.3315 10.945C13.1607 10.7416 12.9302 10.6521 12.8163 10.7443C12.7051 10.8392 12.7539 11.0806 12.9247 11.2839Z" fill="#E6E6E6"/>
</g>
<g style="mix-blend-mode:darken" opacity="0.64">
<path d="M11.802 14.5273C11.6556 14.568 10.4461 14.888 9.29355 15.01C9.30711 15.2676 9.29355 15.9917 8.80813 16.5069C8.47999 16.8567 8.01084 17.033 7.41423 17.033C6.81762 17.033 6.34576 16.8567 6.02033 16.5069C5.53762 15.9917 5.52406 15.2703 5.53491 15.01C4.38508 14.8853 3.17287 14.5653 3.02643 14.5273C3.02372 14.5029 3.0183 14.4785 3.01559 14.4541C3.02101 14.4541 3.02372 14.4541 3.02915 14.4541C3.04271 14.4568 4.34711 14.8148 5.57287 14.9422C5.59186 14.9422 5.60542 14.9612 5.60271 14.9802C5.58915 15.1944 5.58101 15.9374 6.06643 16.4581C6.38101 16.7916 6.83118 16.9625 7.41152 16.9625C7.99186 16.9625 8.44203 16.7916 8.7566 16.4581C9.24203 15.9402 9.23389 15.1971 9.22033 14.9802C9.22033 14.9612 9.23389 14.9449 9.25016 14.9422C10.4759 14.8148 11.7803 14.4568 11.7939 14.4541C11.7993 14.4541 11.8047 14.4541 11.8075 14.4541C11.8047 14.4785 11.802 14.5029 11.7966 14.5273H11.802Z" fill="#808080"/>
</g>
<g style="mix-blend-mode:multiply" opacity="0.2">
<path d="M11.8671 13.6892C11.8671 14.2262 11.7803 14.8526 11.5715 15.5766C10.6549 18.7385 9.19864 20.3792 7.41423 20.3792C5.62983 20.3792 4.17356 18.7385 3.25695 15.5766C3.04542 14.8499 2.96135 14.2235 2.95864 13.6865C3.34101 15.0614 4.56135 18.4104 7.41152 18.4104C10.2617 18.4104 11.482 15.0641 11.8644 13.6892H11.8671Z" fill="#808080"/>
</g>
<g style="mix-blend-mode:multiply" opacity="0.63">
<path d="M2.35661 16.0506C2.35118 16.0723 2.34305 16.0967 2.33762 16.1211C1.22576 15.4215 0.268471 15.5842 0.00270844 15.6493C0.00270844 15.6249 0.00270844 15.6004 0.0054203 15.576C0.13559 15.5462 0.387793 15.5001 0.724064 15.5191C1.12271 15.5381 1.71118 15.652 2.35661 16.0533V16.0506Z" fill="#808080"/>
</g>
<g style="mix-blend-mode:multiply" opacity="0.63">
<path d="M12.4691 16.0506C12.4746 16.0723 12.4827 16.0967 12.4881 16.1211C13.6 15.4215 14.5573 15.5842 14.823 15.6493C14.823 15.6249 14.823 15.6004 14.8203 15.576C14.6902 15.5462 14.438 15.5001 14.1017 15.5191C13.703 15.5381 13.1146 15.652 12.4691 16.0533V16.0506Z" fill="#808080"/>
</g>
<path d="M2.39999 7.428C2.39186 7.95408 2.34847 8.49914 2.23999 8.96286L1.52406 8.80557C1.37491 8.77303 1.26372 8.68354 1.23389 8.57507C1.10101 8.07882 1.04135 7.55274 1.01423 7.09445C0.987112 6.59819 1.00338 6.18058 1.01423 5.96093C1.01965 5.86059 1.0983 5.76839 1.22033 5.71687C1.59728 5.55959 2.28609 5.28027 2.28609 5.28027C2.28609 5.28027 2.41626 6.31346 2.39728 7.428H2.39999Z" fill="url(#paint11_linear_1094_6758)"/>
<g style="mix-blend-mode:screen" opacity="0.31">
<path d="M2.39999 7.42799C1.87389 7.34664 1.41287 7.23004 1.01694 7.09445C0.989824 6.59819 1.0061 6.18058 1.01694 5.96093C1.02237 5.86059 1.10101 5.76839 1.22304 5.71687C1.59999 5.55959 2.28881 5.28027 2.28881 5.28027C2.28881 5.28027 2.41898 6.31346 2.39999 7.42799Z" fill="#B3B3B3"/>
</g>
<path d="M12.6725 8.79391L13.3641 8.63663C13.5078 8.60409 13.6163 8.5146 13.6434 8.40613C13.9119 7.37294 13.8766 6.20959 13.8549 5.79198C13.8495 5.69165 13.7735 5.59945 13.6542 5.54792C13.2908 5.39064 12.6237 5.11133 12.6237 5.11133C12.6237 5.11133 12.3471 7.35667 12.6698 8.79391H12.6725Z" fill="url(#paint12_linear_1094_6758)"/>
<g style="mix-blend-mode:screen" opacity="0.31">
<path d="M12.518 7.26198C13.0278 7.18063 13.4725 7.06402 13.8576 6.92843C13.8847 6.43218 13.8685 6.01457 13.8576 5.79491C13.8522 5.69458 13.7763 5.60238 13.6569 5.55085C13.2936 5.39357 12.6264 5.11426 12.6264 5.11426C12.6264 5.11426 12.499 6.14744 12.518 7.26198Z" fill="#B3B3B3"/>
</g>
<path d="M9.86847 2.97754C9.00609 2.97754 8.50169 3.21889 7.39525 3.21889C6.28881 3.21889 5.7844 2.97754 4.92203 2.97754C4.05965 2.97754 1.79525 3.76395 1.79525 6.92859C1.79525 10.0932 4.2305 12.1867 5.52135 12.1867H9.26643C10.56 12.1867 12.9925 10.0932 12.9925 6.92859C12.9925 3.76395 10.7254 2.97754 9.86576 2.97754H9.86847Z" fill="url(#paint13_linear_1094_6758)"/>
<g style="mix-blend-mode:screen" opacity="0.42">
<path d="M7.41423 10.2803C6.27796 10.2803 5.46982 10.207 4.35796 9.80028C3.30847 9.41521 2.94779 7.90747 2.94779 6.87157C2.94779 5.98482 3.17287 5.24993 3.59592 4.75097C3.96745 4.31166 4.47457 4.07031 5.02236 4.07031C5.16067 4.07031 5.29897 4.08658 5.43457 4.11912C6.61694 4.39844 7.40609 4.40115 7.41423 4.40115C7.42236 4.40115 8.21694 4.39844 9.39389 4.11912C9.52948 4.08658 9.66779 4.07031 9.80609 4.07031C10.3539 4.07031 10.8583 4.31166 11.2325 4.75097C11.6583 5.25264 11.8807 5.98482 11.8807 6.87157C11.8807 7.90475 11.5146 9.49928 10.4705 9.89519C9.55118 10.2423 8.54779 10.2803 7.41423 10.2803Z" fill="#B3B3B3"/>
</g>
<path d="M11.7641 6.87459C11.7641 4.74314 10.4651 3.98656 9.4183 4.23333C8.21152 4.51806 7.41152 4.51806 7.41152 4.51806C7.41152 4.51806 6.61152 4.51806 5.40474 4.23333C4.35796 3.98656 3.05898 4.74314 3.05898 6.87459C3.05898 9.00604 4.17355 10.126 7.41152 10.126C10.9315 10.126 11.7641 9.00604 11.7641 6.87459Z" fill="url(#paint14_linear_1094_6758)"/>
<path style="mix-blend-mode:screen" opacity="0.29" d="M10.2536 7.58731V6.65718C10.2536 6.21387 9.89417 5.85449 9.45084 5.85449H9.33152C8.8882 5.85449 8.52881 6.21387 8.52881 6.65718V7.58731C8.52881 8.03062 8.8882 8.39 9.33152 8.39H9.45084C9.89417 8.39 10.2536 8.03062 10.2536 7.58731Z" fill="url(#paint15_radial_1094_6758)"/>
<g style="mix-blend-mode:screen" opacity="0.1">
<path d="M11.4766 5.99838C7.06983 4.93537 4.46101 6.59226 3.35728 7.59019C3.29762 7.37325 3.26237 7.13461 3.26237 6.87428C3.26237 5.16587 4.13559 4.40115 5.00338 4.40115C5.11728 4.40115 5.22847 4.41471 5.33966 4.43911C6.57084 4.72927 7.38169 4.73199 7.41694 4.73199C7.4522 4.73199 8.19796 4.72927 9.34508 4.47166C9.39389 4.46081 9.44271 4.44996 9.49423 4.4364C9.60271 4.412 9.7166 4.39844 9.8305 4.39844C10.3268 4.39844 10.8258 4.64792 11.1593 5.18214C11.2976 5.4045 11.4088 5.67297 11.4793 5.99296L11.4766 5.99838Z" fill="#B3B3B3"/>
</g>
<path style="mix-blend-mode:screen" opacity="0.29" d="M6.29966 7.58438V6.65425C6.29966 6.21094 5.94027 5.85156 5.49694 5.85156H5.37762C4.9343 5.85156 4.57491 6.21094 4.57491 6.65425V7.58438C4.57491 8.02769 4.9343 8.38707 5.37762 8.38707H5.49694C5.94027 8.38707 6.29966 8.02769 6.29966 7.58438Z" fill="url(#paint16_radial_1094_6758)"/>
<path d="M5.44813 6.12012H5.42372C5.11519 6.12012 4.86508 6.37022 4.86508 6.67874V7.56549C4.86508 7.87401 5.11519 8.12411 5.42372 8.12411H5.44813C5.75666 8.12411 6.00677 7.87401 6.00677 7.56549V6.67874C6.00677 6.37022 5.75666 6.12012 5.44813 6.12012Z" fill="url(#paint17_linear_1094_6758)"/>
<path d="M9.40203 8.12207H9.37491C9.06576 8.12207 8.81626 7.87259 8.81626 7.56345V6.67399C8.81626 6.36484 9.06576 6.11536 9.37491 6.11536H9.40203C9.71118 6.11536 9.96067 6.36484 9.96067 6.67399V7.56345C9.96067 7.87259 9.71118 8.12207 9.40203 8.12207Z" fill="url(#paint18_linear_1094_6758)"/>
<path d="M7.07796 2.72281C6.59525 2.61163 5.03322 2.09639 5.24745 0.127645C5.2583 0.0381563 5.34237 -0.0215027 5.42915 0.00561504C5.93084 0.160186 7.43051 0.783893 7.23525 2.61163C7.22712 2.68756 7.15118 2.73908 7.07796 2.72281Z" fill="url(#paint19_linear_1094_6758)"/>
<path d="M7.57152 2.5949C7.61762 2.21796 7.84 1.26884 8.9383 1.11969C9.0305 1.10613 9.11186 1.18477 9.0983 1.27697C9.04949 1.67561 8.81627 2.63286 7.71525 2.74133C7.63118 2.74947 7.56067 2.67896 7.57152 2.5949Z" fill="url(#paint20_linear_1094_6758)"/>
<path d="M60.5505 9.00369V10.1887H57.1553C56.5858 10.1887 56.3525 10.4219 56.3525 10.8857C56.3525 11.3168 56.5397 11.5473 57.2258 11.5473H58.6685C60.3661 11.5473 60.7973 12.3256 60.7973 13.2801C60.7973 14.373 60.2278 15.1404 58.7851 15.1404H55.2163V13.9418H58.7851C59.3546 13.9418 59.5878 13.7439 59.5878 13.2666C59.5878 12.7893 59.3329 12.5805 58.7146 12.5805H57.261C55.5634 12.5805 55.1458 11.7317 55.1458 10.7907C55.1458 9.68705 55.7153 9.00098 57.1471 9.00098H60.5532L60.5505 9.00369Z" fill="url(#paint21_linear_1094_6758)"/>
<path d="M63.0481 9.00354L63.5959 13.7952C63.6312 14.0637 63.7478 14.1912 64.038 14.1912C64.3281 14.1912 64.4339 14.0746 64.4908 13.8549L65.3641 10.1344C65.5512 9.32082 66.0746 8.88965 67.0508 8.88965C68.0271 8.88965 68.5044 9.32082 68.6915 10.1344L69.5159 13.8549C69.562 14.0773 69.703 14.1912 69.9797 14.1912C70.2563 14.1912 70.3647 14.0637 70.3973 13.7952L71.0373 9.00354H72.3742L71.6881 13.863C71.5715 14.7118 71.0834 15.2813 69.9661 15.2813C69.0115 15.2813 68.5017 14.8637 68.3146 14.0149L67.4902 10.2835C67.4441 10.0747 67.2705 9.98249 67.0373 9.98249C66.7932 9.98249 66.6305 10.0747 66.5844 10.2835L65.7112 14.0149C65.5132 14.8637 64.9898 15.2813 64.0136 15.2813C62.8746 15.2813 62.4678 14.7118 62.3512 13.863L61.7112 9.00354H63.0481Z" fill="url(#paint22_linear_1094_6758)"/>
<path d="M77.5349 9.00391C79.0698 9.00391 79.6746 9.86354 79.6746 11.0269V13.9095C79.6746 14.7935 79.4414 15.1406 78.4081 15.1406H75.5363C74.0827 15.1406 73.478 14.4302 73.478 13.2695C73.478 12.1089 74.0366 11.5014 75.5471 11.5014H78.4651V11.0377C78.4651 10.5605 78.1966 10.1889 77.5241 10.1889H73.8495V9.00391H77.5349ZM78.4651 13.6302V12.4777H75.5688C74.918 12.4777 74.6847 12.7461 74.6847 13.199C74.6847 13.6519 74.9288 13.942 75.5444 13.942H78.1261C78.3702 13.942 78.4624 13.8498 78.4624 13.6275L78.4651 13.6302Z" fill="url(#paint23_linear_1094_6758)"/>
<path d="M85.3478 9.00391C86.9749 9.00391 88 10.0045 88 12.0736C88 14.1427 86.9776 15.1434 85.3478 15.1434H82.6278V17.6084H81.3966V11.6316C81.3966 9.86354 82.1749 9.00391 83.6529 9.00391H85.3505H85.3478ZM82.6278 13.9448H85.2203C86.2888 13.9448 86.7553 13.397 86.7553 12.0736C86.7553 10.7503 86.2888 10.1889 85.2203 10.1889H84.0108C83.0102 10.1889 82.6278 10.631 82.6278 11.6886V13.9448Z" fill="url(#paint24_linear_1094_6758)"/>
</g>
<defs>
<linearGradient id="paint0_linear_1094_6758" x1="17.6081" y1="11.1478" x2="88.179" y2="11.1478" gradientUnits="userSpaceOnUse">
<stop stop-color="#FFCC00"/>
<stop offset="0.19" stop-color="#FFFFA9"/>
<stop offset="0.2" stop-color="#FFFDA6"/>
<stop offset="0.29" stop-color="#FFE57A"/>
<stop offset="0.39" stop-color="#FFD054"/>
<stop offset="0.5" stop-color="#FFBF36"/>
<stop offset="0.61" stop-color="#FFB11E"/>
<stop offset="0.72" stop-color="#FFA80D"/>
<stop offset="0.85" stop-color="#FFA203"/>
<stop offset="1" stop-color="#FFA100"/>
</linearGradient>
<linearGradient id="paint1_linear_1094_6758" x1="-9.96327e-06" y1="13.3065" x2="0.271177" y2="13.3065" gradientUnits="userSpaceOnUse">
<stop stop-color="#FFCC00"/>
<stop offset="0.19" stop-color="#FFFFA9"/>
<stop offset="0.2" stop-color="#FFFDA6"/>
<stop offset="0.29" stop-color="#FFE57A"/>
<stop offset="0.39" stop-color="#FFD054"/>
<stop offset="0.5" stop-color="#FFBF36"/>
<stop offset="0.61" stop-color="#FFB11E"/>
<stop offset="0.72" stop-color="#FFA80D"/>
<stop offset="0.85" stop-color="#FFA203"/>
<stop offset="1" stop-color="#FFA100"/>
</linearGradient>
<linearGradient id="paint2_linear_1094_6758" x1="7.66717e-06" y1="13.3065" x2="0.271194" y2="13.3065" gradientUnits="userSpaceOnUse">
<stop stop-color="#FFCC00"/>
<stop offset="0.19" stop-color="#FFFFA9"/>
<stop offset="0.2" stop-color="#FFFDA6"/>
<stop offset="0.29" stop-color="#FFE57A"/>
<stop offset="0.39" stop-color="#FFD054"/>
<stop offset="0.5" stop-color="#FFBF36"/>
<stop offset="0.61" stop-color="#FFB11E"/>
<stop offset="0.72" stop-color="#FFA80D"/>
<stop offset="0.85" stop-color="#FFA203"/>
<stop offset="1" stop-color="#FFA100"/>
</linearGradient>
<linearGradient id="paint3_linear_1094_6758" x1="-8.91402e-05" y1="10.741" x2="0.271098" y2="10.741" gradientUnits="userSpaceOnUse">
<stop stop-color="#FFCC00"/>
<stop offset="0.19" stop-color="#FFFFA9"/>
<stop offset="0.2" stop-color="#FFFDA6"/>
<stop offset="0.29" stop-color="#FFE57A"/>
<stop offset="0.39" stop-color="#FFD054"/>
<stop offset="0.5" stop-color="#FFBF36"/>
<stop offset="0.61" stop-color="#FFB11E"/>
<stop offset="0.72" stop-color="#FFA80D"/>
<stop offset="0.85" stop-color="#FFA203"/>
<stop offset="1" stop-color="#FFA100"/>
</linearGradient>
<linearGradient id="paint4_linear_1094_6758" x1="-1.93575e-05" y1="12.0727" x2="0.271167" y2="12.0727" gradientUnits="userSpaceOnUse">
<stop stop-color="#FFCC00"/>
<stop offset="0.19" stop-color="#FFFFA9"/>
<stop offset="0.2" stop-color="#FFFDA6"/>
<stop offset="0.29" stop-color="#FFE57A"/>
<stop offset="0.39" stop-color="#FFD054"/>
<stop offset="0.5" stop-color="#FFBF36"/>
<stop offset="0.61" stop-color="#FFB11E"/>
<stop offset="0.72" stop-color="#FFA80D"/>
<stop offset="0.85" stop-color="#FFA203"/>
<stop offset="1" stop-color="#FFA100"/>
</linearGradient>
<linearGradient id="paint5_linear_1094_6758" x1="2.87186" y1="14.8416" x2="0.0379627" y2="14.6328" gradientUnits="userSpaceOnUse">
<stop stop-color="#8A8A8A"/>
<stop offset="1" stop-color="#E6E6E6"/>
</linearGradient>
<linearGradient id="paint6_linear_1094_6758" x1="12.0976" y1="16.162" x2="14.126" y2="14.0739" gradientUnits="userSpaceOnUse">
<stop stop-color="#8A8A8A"/>
<stop offset="1" stop-color="#E6E6E6"/>
</linearGradient>
<linearGradient id="paint7_linear_1094_6758" x1="0.821693" y1="11.9535" x2="3.63932" y2="11.8857" gradientUnits="userSpaceOnUse">
<stop stop-color="#311D52"/>
<stop offset="1" stop-color="#25002D"/>
</linearGradient>
<linearGradient id="paint8_linear_1094_6758" x1="13.9742" y1="12.7128" x2="10.8421" y2="11.2809" gradientUnits="userSpaceOnUse">
<stop stop-color="#311D52"/>
<stop offset="1" stop-color="#25002D"/>
</linearGradient>
<linearGradient id="paint9_linear_1094_6758" x1="5.84406" y1="19.9828" x2="8.11103" y2="10.9743" gradientUnits="userSpaceOnUse">
<stop stop-color="#8A8A8A"/>
<stop offset="1" stop-color="white"/>
</linearGradient>
<linearGradient id="paint10_linear_1094_6758" x1="8.20609" y1="13.5374" x2="6.6089" y2="16.7075" gradientUnits="userSpaceOnUse">
<stop stop-color="#E3C20E"/>
<stop offset="1" stop-color="#BC4F00"/>
</linearGradient>
<linearGradient id="paint11_linear_1094_6758" x1="0.835247" y1="6.44362" x2="2.202" y2="7.22737" gradientUnits="userSpaceOnUse">
<stop stop-color="#E3830E"/>
<stop offset="1" stop-color="#BC850B"/>
</linearGradient>
<linearGradient id="paint12_linear_1094_6758" x1="14.5817" y1="6.02248" x2="12.6482" y2="7.07471" gradientUnits="userSpaceOnUse">
<stop stop-color="#E3830E"/>
<stop offset="1" stop-color="#BC850B"/>
</linearGradient>
<linearGradient id="paint13_linear_1094_6758" x1="3.49559" y1="11.0966" x2="11.2946" y2="3.29726" gradientUnits="userSpaceOnUse">
<stop stop-color="#8A8A8A"/>
<stop offset="0.18" stop-color="#A1A1A1"/>
<stop offset="0.55" stop-color="#CDCDCD"/>
<stop offset="0.83" stop-color="#E7E7E7"/>
<stop offset="1" stop-color="#F2F2F2"/>
</linearGradient>
<linearGradient id="paint14_linear_1094_6758" x1="7.67457" y1="4.434" x2="7.078" y2="10.1206" gradientUnits="userSpaceOnUse">
<stop stop-color="#311D52"/>
<stop offset="1" stop-color="#25002D"/>
</linearGradient>
<radialGradient id="paint15_radial_1094_6758" cx="0" cy="0" r="1" gradientUnits="userSpaceOnUse" gradientTransform="translate(9.68726 5.15995) scale(0.823485 1.25479)">
<stop stop-color="#6ACFFF"/>
<stop offset="0.2" stop-color="#53A3C9"/>
<stop offset="0.6" stop-color="#274C5E"/>
<stop offset="0.87" stop-color="#0A151A"/>
<stop offset="1"/>
</radialGradient>
<radialGradient id="paint16_radial_1094_6758" cx="0" cy="0" r="1" gradientUnits="userSpaceOnUse" gradientTransform="translate(5.72772 1716.37) scale(0.823485 1.25479)">
<stop stop-color="#6ACFFF"/>
<stop offset="0.2" stop-color="#53A3C9"/>
<stop offset="0.6" stop-color="#274C5E"/>
<stop offset="0.87" stop-color="#0A151A"/>
<stop offset="1"/>
</radialGradient>
<linearGradient id="paint17_linear_1094_6758" x1="5.42643" y1="8.08073" x2="5.44542" y2="6.14723" gradientUnits="userSpaceOnUse">
<stop stop-color="#BC850B"/>
<stop offset="0.99" stop-color="#E3E554"/>
</linearGradient>
<linearGradient id="paint18_linear_1094_6758" x1="9.4427" y1="8.05428" x2="9.33424" y2="6.13977" gradientUnits="userSpaceOnUse">
<stop stop-color="#BC850B"/>
<stop offset="0.99" stop-color="#E3E554"/>
</linearGradient>
<linearGradient id="paint19_linear_1094_6758" x1="5.30983" y1="1.36421" x2="8.95728" y2="1.36421" gradientUnits="userSpaceOnUse">
<stop stop-color="#D88B00"/>
<stop offset="0.99" stop-color="#E3FF9D"/>
</linearGradient>
<linearGradient id="paint20_linear_1094_6758" x1="5.35322" y1="1.93051" x2="8.94644" y2="1.93051" gradientUnits="userSpaceOnUse">
<stop stop-color="#D88B00"/>
<stop offset="0.99" stop-color="#E3FF9D"/>
</linearGradient>
<linearGradient id="paint21_linear_1094_6758" x1="8.02036e-06" y1="12.0734" x2="0.271194" y2="12.0734" gradientUnits="userSpaceOnUse">
<stop stop-color="#FFCC00"/>
<stop offset="0.19" stop-color="#FFFFA9"/>
<stop offset="0.2" stop-color="#FFFDA6"/>
<stop offset="0.29" stop-color="#FFE57A"/>
<stop offset="0.39" stop-color="#FFD054"/>
<stop offset="0.5" stop-color="#FFBF36"/>
<stop offset="0.61" stop-color="#FFB11E"/>
<stop offset="0.72" stop-color="#FFA80D"/>
<stop offset="0.85" stop-color="#FFA203"/>
<stop offset="1" stop-color="#FFA100"/>
</linearGradient>
<linearGradient id="paint22_linear_1094_6758" x1="-1.67031e-05" y1="12.0841" x2="0.27117" y2="12.0841" gradientUnits="userSpaceOnUse">
<stop stop-color="#FFCC00"/>
<stop offset="0.19" stop-color="#FFFFA9"/>
<stop offset="0.2" stop-color="#FFFDA6"/>
<stop offset="0.29" stop-color="#FFE57A"/>
<stop offset="0.39" stop-color="#FFD054"/>
<stop offset="0.5" stop-color="#FFBF36"/>
<stop offset="0.61" stop-color="#FFB11E"/>
<stop offset="0.72" stop-color="#FFA80D"/>
<stop offset="0.85" stop-color="#FFA203"/>
<stop offset="1" stop-color="#FFA100"/>
</linearGradient>
<linearGradient id="paint23_linear_1094_6758" x1="8.34162e-05" y1="12.0736" x2="0.27127" y2="12.0736" gradientUnits="userSpaceOnUse">
<stop stop-color="#FFCC00"/>
<stop offset="0.19" stop-color="#FFFFA9"/>
<stop offset="0.2" stop-color="#FFFDA6"/>
<stop offset="0.29" stop-color="#FFE57A"/>
<stop offset="0.39" stop-color="#FFD054"/>
<stop offset="0.5" stop-color="#FFBF36"/>
<stop offset="0.61" stop-color="#FFB11E"/>
<stop offset="0.72" stop-color="#FFA80D"/>
<stop offset="0.85" stop-color="#FFA203"/>
<stop offset="1" stop-color="#FFA100"/>
</linearGradient>
<linearGradient id="paint24_linear_1094_6758" x1="-2.12816e-05" y1="13.3075" x2="0.271165" y2="13.3075" gradientUnits="userSpaceOnUse">
<stop stop-color="#FFCC00"/>
<stop offset="0.19" stop-color="#FFFFA9"/>
<stop offset="0.2" stop-color="#FFFDA6"/>
<stop offset="0.29" stop-color="#FFE57A"/>
<stop offset="0.39" stop-color="#FFD054"/>
<stop offset="0.5" stop-color="#FFBF36"/>
<stop offset="0.61" stop-color="#FFB11E"/>
<stop offset="0.72" stop-color="#FFA80D"/>
<stop offset="0.85" stop-color="#FFA203"/>
<stop offset="1" stop-color="#FFA100"/>
</linearGradient>
<clipPath id="clip0_1094_6758">
<rect width="88" height="20.3789" fill="white"/>
</clipPath>
</defs>
</svg>
