<svg width="15" height="9" viewBox="0 0 15 9" fill="none" xmlns="http://www.w3.org/2000/svg">
<path d="M8.39805 4.62428C8.39805 6.85399 6.60605 8.66152 4.39563 8.66152C2.1852 8.66152 0.393066 6.85358 0.393066 4.62428C0.393066 2.39498 2.18507 0.586914 4.39563 0.586914C6.60619 0.586914 8.39805 2.39458 8.39805 4.62428Z" fill="white"/>
<path d="M12.7889 4.62411C12.7889 6.7229 11.8929 8.42498 10.7877 8.42498C9.68238 8.42498 8.78638 6.7229 8.78638 4.62411C8.78638 2.52532 9.68224 0.823242 10.7875 0.823242C11.8928 0.823242 12.7888 2.52478 12.7888 4.62411" fill="white"/>
<path d="M14.5848 4.62422C14.5848 6.50422 14.2697 8.0292 13.881 8.0292C13.4922 8.0292 13.1772 6.50463 13.1772 4.62422C13.1772 2.74381 13.4923 1.21924 13.881 1.21924C14.2696 1.21924 14.5848 2.74367 14.5848 4.62422Z" fill="white"/>
</svg>
