<svg width="24" height="24" viewBox="0 0 24 24" fill="none" xmlns="http://www.w3.org/2000/svg">
<g clip-path="url(#clip0_679_38391)">
<path d="M12 24C18.6267 24 24 18.6267 24 12C24 5.37328 18.6267 0 12 0C5.37328 0 0 5.37328 0 12C0 18.6267 5.37328 24 12 24Z" fill="#F0F0F0"/>
<path d="M23.2533 16.1718C24.2489 13.4786 24.2489 10.5183 23.2533 7.8252H0.746724C-0.248908 10.5183 -0.248908 13.4786 0.746724 16.1718L12 17.2204L23.2533 16.1718Z" fill="#0052B4"/>
<path d="M11.9999 24C17.1599 24 21.5596 20.7469 23.2531 16.1719H0.746582C2.44205 20.7469 6.83986 24 11.9999 24Z" fill="#D80027"/>
</g>
<defs>
<clipPath id="clip0_679_38391">
<rect width="24" height="24" fill="white"/>
</clipPath>
</defs>
</svg>
