<svg width="24" height="24" viewBox="0 0 24 24" fill="none" xmlns="http://www.w3.org/2000/svg">
<g clip-path="url(#clip0_721_4883)">
<path d="M12 24C5.37258 24 0 18.6274 0 12C0 5.37258 5.37258 0 12 0C18.6274 0 24 5.37258 24 12C24 18.6274 18.6274 24 12 24Z" fill="#012169"/>
<path d="M2.75366 4.35278L12.0001 9.90078L21.2465 4.35278C22.0155 5.28273 22.6396 6.32355 23.0977 7.43998L15.4977 12L23.0977 16.56C22.64 17.6767 22.0161 18.7178 21.2473 19.648L12.0001 14.0992L2.75286 19.6472C1.984 18.717 1.36015 17.6759 0.902456 16.5592L8.50246 11.9992L0.902456 7.43918C1.36057 6.32303 1.98468 5.28249 2.75366 4.35278Z" fill="white"/>
<path d="M21.6094 19.1657L10.8342 12.7001L1.72059 18.1681C1.51394 17.8244 1.32464 17.4707 1.15339 17.1081L10.8334 11.3001L1.72059 5.83287C1.92805 5.48834 2.15126 5.15554 2.39019 4.83447L13.1662 11.3001L22.2798 5.83287C22.4851 6.17527 22.6739 6.52834 22.8462 6.89207L13.1662 12.7001L22.2798 18.1681C22.0731 18.5116 21.8494 18.8445 21.6094 19.1657Z" fill="#C8102E"/>
<path d="M8.99999 0.393604C10.9656 -0.131201 13.0344 -0.131201 15 0.393604V9.00001H23.6064C24.1312 10.9656 24.1312 13.0344 23.6064 15H15V23.6064C13.0344 24.1312 10.9656 24.1312 8.99999 23.6064V15H0.393593C-0.131212 13.0344 -0.131212 10.9656 0.393593 9.00001H8.99999V0.393604Z" fill="white"/>
<path d="M10.2 0.1496C10.7954 0.0546811 11.3971 0.00467342 12 0C12.6029 0.00467342 13.2046 0.0546811 13.8 0.1496V10.2H23.8504C23.9453 10.7954 23.9953 11.3971 24 12C23.9953 12.6029 23.9453 13.2046 23.8504 13.8H13.8V23.8504C13.2046 23.9453 12.6029 23.9953 12 24C11.3971 23.9953 10.7954 23.9453 10.2 23.8504V13.8H0.149599C0.0546818 13.2046 0.004673 12.6029 0 12C0.004673 11.3971 0.0546818 10.7954 0.149599 10.2H10.2V0.1496Z" fill="#C8102E"/>
</g>
<defs>
<clipPath id="clip0_721_4883">
<rect width="24" height="24" fill="white" transform="matrix(-1 0 0 1 24 0)"/>
</clipPath>
</defs>
</svg>
